<?xml version="1.0" encoding="UTF-8" standalone="no"?>
<!-- Created with Inkscape (http://www.inkscape.org/) -->

<svg
   width="512"
   height="512"
   viewBox="0 0 135.46667 135.46667"
   version="1.1"
   id="svg1"
   xml:space="preserve"
   inkscape:export-filename="wavy thing.png"
   inkscape:export-xdpi="96"
   inkscape:export-ydpi="96"
   inkscape:version="1.3.2 (091e20e, 2023-11-25, custom)"
   sodipodi:docname="wavy thing.svg"
   xmlns:inkscape="http://www.inkscape.org/namespaces/inkscape"
   xmlns:sodipodi="http://sodipodi.sourceforge.net/DTD/sodipodi-0.dtd"
   xmlns="http://www.w3.org/2000/svg"
   xmlns:svg="http://www.w3.org/2000/svg"><sodipodi:namedview
     id="namedview1"
     pagecolor="#ffffff"
     bordercolor="#666666"
     borderopacity="1.0"
     inkscape:showpageshadow="2"
     inkscape:pageopacity="0.0"
     inkscape:pagecheckerboard="0"
     inkscape:deskcolor="#d1d1d1"
     inkscape:document-units="px"
     inkscape:zoom="1.0948152"
     inkscape:cx="267.62508"
     inkscape:cy="117.37141"
     inkscape:window-width="1920"
     inkscape:window-height="1027"
     inkscape:window-x="1912"
     inkscape:window-y="-8"
     inkscape:window-maximized="1"
     inkscape:current-layer="layer1" /><defs
     id="defs1"><clipPath
       clipPathUnits="userSpaceOnUse"
       id="clipPath9"><rect
         style="font-variation-settings:normal;opacity:1;vector-effect:none;fill:#332c03;fill-opacity:1;fill-rule:evenodd;stroke:none;stroke-width:0.529171;stroke-linecap:butt;stroke-linejoin:miter;stroke-miterlimit:4;stroke-dasharray:none;stroke-dashoffset:0;stroke-opacity:1;-inkscape-stroke:none;stop-color:#000000;stop-opacity:1"
         id="rect9"
         width="82.153252"
         height="82.153252"
         x="30.560534"
         y="20.219431"
         ry="0"
         rx="7.6310816" /></clipPath></defs><g
     inkscape:label="Layer 1"
     inkscape:groupmode="layer"
     id="layer1"><g
       id="g8"
       clip-path="url(#clipPath9)"
       transform="matrix(1.6489508,0,0,1.6489508,-26.640662,-33.340847)"
       style="stroke-width:0.606446"><path
         id="path6"
         style="font-variation-settings:normal;opacity:1;vector-effect:none;fill:#ffb60f;fill-opacity:1;fill-rule:evenodd;stroke-width:0.0320911;stroke-linecap:butt;stroke-linejoin:miter;stroke-miterlimit:4;stroke-dasharray:none;stroke-dashoffset:0;stroke-opacity:1;-inkscape-stroke:none;paint-order:markers fill stroke;stop-color:#000000;stop-opacity:1"
         d="M 45.02828,-3.9305095 A 31.613928,31.613928 0 0 0 13.41471,27.683582 31.613928,31.613928 0 0 0 25.98552,52.817966 25.034811,25.034811 0 0 0 11.2784,75.617092 25.034811,25.034811 0 0 0 36.17869,100.64192 23.924051,23.924051 0 0 0 59.980862,122.86692 23.924051,23.924051 0 0 0 83.904976,98.9428 23.924051,23.924051 0 0 0 61.334262,75.061053 25.034811,25.034811 0 0 0 60.672802,69.867572 12.731016,12.731016 0 0 0 73.053962,57.16137 12.731016,12.731016 0 0 0 69.188052,48.029111 31.613928,31.613928 0 0 0 76.642366,27.683582 31.613928,31.613928 0 0 0 45.02828,-3.9305095 Z" /><path
         id="path1"
         style="font-variation-settings:normal;opacity:1;vector-effect:none;fill:#ffdb0f;fill-opacity:1;fill-rule:evenodd;stroke-width:0.0320911;stroke-linecap:butt;stroke-linejoin:miter;stroke-miterlimit:4;stroke-dasharray:none;stroke-dashoffset:0;stroke-opacity:1;-inkscape-stroke:none;paint-order:markers fill stroke;stop-color:#000000;stop-opacity:1"
         d="m 42.58917,5.3759735 a 22.77734,22.77734 0 0 0 -22.7769,22.7774215 22.77734,22.77734 0 0 0 1.21336,7.197494 21.689829,21.689829 0 0 0 -13.05553,19.869588 21.689829,21.689829 0 0 0 8.54986,17.188616 21.689829,21.689829 0 0 0 -8.30802,17.007748 21.689829,21.689829 0 0 0 21.68964,21.689629 21.689829,21.689829 0 0 0 3.29644,-0.26613 21.689829,21.689829 0 0 0 20.508312,14.76654 21.689829,21.689829 0 0 0 21.689624,-21.69015 21.689829,21.689829 0 0 0 -21.689624,-21.689632 21.689829,21.689829 0 0 0 -0.6687,0.04754 17.339781,17.339781 0 0 0 1.81643,-7.659998 17.339781,17.339781 0 0 0 -4.85242,-12.023556 21.689829,21.689829 0 0 0 0.0894,-0.239778 8.5188465,8.5188465 0 0 0 3.25252,0.663008 8.5188465,8.5188465 0 0 0 8.51886,-8.51886 8.5188465,8.5188465 0 0 0 -5.77898,-8.063591 22.77734,22.77734 0 0 0 9.28315,-18.278471 A 22.77734,22.77734 0 0 0 42.58917,5.3759705 Z" /></g></g></svg>
